<svg xmlns="http://www.w3.org/2000/svg" width="161" height="161" viewBox="0 0 161 161"><circle cx="80.5" cy="80.5" r="80.5" fill="#670000"/><g transform="translate(30.124 22.535)"><g transform="translate(22.265 0)"><path d="M67.206,18.859,40.522.318a1.577,1.577,0,0,0-1.9,0L11.784,18.859a1.548,1.548,0,0,0-.684,1.2V55.3a1.625,1.625,0,0,0,1.673,1.486H66.294a1.508,1.508,0,0,0,1.6-1.486V20.062A1.367,1.367,0,0,0,67.206,18.859ZM45.767,53.818H33.3V36.41H45.767Zm18.93,0H48.96V34.923a1.508,1.508,0,0,0-1.6-1.486H31.7a1.508,1.508,0,0,0-1.6,1.486V53.818H14.369V20.77L39.533,3.361,64.7,20.77Z" transform="translate(-11.1 0)" fill="#fff" stroke="#fff" stroke-width="0.75"/></g><g transform="translate(0 56.684)"><path d="M23.362,271.229a1.984,1.984,0,0,0,2.8.016l9.623-9.48a6,6,0,0,0,1.413-6.159l2.07-2a5.919,5.919,0,0,1,4.133-1.67H69.787a17.77,17.77,0,0,0,12.46-5.062c.138-.134-1.048,1.263,18-21.5a7.939,7.939,0,0,0-12.081-10.3L76.454,227.108a7.977,7.977,0,0,0-6.171-2.955H48.151a25.607,25.607,0,0,0-9.939-1.985c-9.558,0-17.9,4.414-22.382,12.691a5.929,5.929,0,0,0-5.308,1.645l-9.442,9.47a1.985,1.985,0,0,0,0,2.8Zm14.849-45.091a21.667,21.667,0,0,1,8.738,1.819,1.981,1.981,0,0,0,.8.167H70.284a3.969,3.969,0,1,1,0,7.939H54.09a1.985,1.985,0,0,0,0,3.969H70.284a7.927,7.927,0,0,0,7.869-8.977c11.33-11.646,12.927-13.282,13-13.364a3.97,3.97,0,1,1,6.061,5.129L79.408,244.1a13.82,13.82,0,0,1-9.62,3.869H43.4a9.868,9.868,0,0,0-6.89,2.783l-1.687,1.628L19.276,236.833C22.91,230.015,29.729,226.138,38.211,226.138Zm-24.88,13.171a1.98,1.98,0,0,1,2.458-.279c.344.209-.643-.689,17.191,17.12a1.989,1.989,0,0,1,.011,2.8l-8.2,8.082-19.5-19.651Zm0,0" transform="translate(-0.501 -212.319)" fill="#fff"/></g></g></svg>